<svg id="Layer_1" data-name="Layer 1" xmlns="http://www.w3.org/2000/svg" viewBox="0 0 208.8 208.8"><defs><style>.cls-1{fill:#fff;}</style></defs><title>animator_white</title><path class="cls-1" d="M110.53.81l13.11,1.5-.28,2.44L113.14,3.59l-.87,7.66,8.66,1-.28,2.45-8.66-1-1.16,10.17-2.89-.33Z"/><path class="cls-1" d="M130,4l2.81.76-6,22.08-2.8-.77Z"/><path class="cls-1" d="M141.6,7.5l6.5,3c4.22,2,6.55,4.89,4.55,9.21-1.92,4.15-5.88,4.73-10.11,2.77l-3.86-1.79-4.07,8.78L132,28.25Zm1.55,12.67c3.23,1.5,5.62,1,6.87-1.67s-.07-4.53-3.3-6l-3.48-1.62-3.57,7.7Zm-.8,1.36,2.71-.41,1.29,13.8-3-1.39Z"/><path class="cls-1" d="M148.61,33l2.59-.54a9,9,0,0,0,3.31,6.08c2.39,1.82,4.71,1.71,6.06-.06S161.11,35,160,33l-1.74-3.14c-1.15-2-2.16-4.82-.12-7.49s6.1-3,9.41-.47a9.41,9.41,0,0,1,3.64,6.33l-2.36.56A7.3,7.3,0,0,0,166,23.88c-2-1.55-4.18-1.55-5.42.08s-.24,3.62.72,5.31L163,32.36c1.42,2.51,2.11,5,.05,7.72-2.19,2.88-6.31,3.37-10.14.46A11,11,0,0,1,148.61,33Z"/><path class="cls-1" d="M179.69,37l-4.54-5.22L177,30.2l11,12.66-1.86,1.61-4.53-5.23L166.18,52.62l-1.91-2.2Z"/><path class="cls-1" d="M186.7,63.73a2.08,2.08,0,1,1-1.08,2.8A2.08,2.08,0,0,1,186.7,63.73Z"/><path class="cls-1" d="M193.19,79c7.25-1.39,12.48,2,13.58,7.73a8.54,8.54,0,0,1-1.59,6.71L203,92.21a6.21,6.21,0,0,0,1.24-5c-.81-4.24-4.83-6.39-10.42-5.32s-8.67,4.46-7.85,8.71a6.84,6.84,0,0,0,3.52,4.73L188,97.27A8.82,8.82,0,0,1,183.45,91C182.38,85.4,185.9,80.38,193.19,79Z"/><path class="cls-1" d="M196.84,98.93c7.31.33,11.57,4.56,11.32,10.3s-4.9,9.56-12.21,9.23-11.74-4.56-11.48-10.3S189.52,98.6,196.84,98.93Zm-.75,16.53c5.69.26,9.32-2.27,9.51-6.35s-3.21-6.92-8.9-7.18-9.49,2.26-9.67,6.34S190.4,115.2,196.09,115.46Z"/><path class="cls-1" d="M205.48,128.57l-1.11,3.32-13,.26c-1.66,0-3.35,0-5,0l0,.13c1.33,1,2.71,2,4,3l10.2,8-1.12,3.32-21.68-7.3.87-2.57,11.93,4c1.89.64,4.43,1.73,6.3,2.51l0-.13-4.36-3.38-9.84-7.87.61-1.82,12.6-.33,5.52-.05.05-.13c-2-.51-4.64-1.18-6.53-1.81l-11.94-4,.84-2.5Z"/><path class="cls-1" d="M194.33,156.13l-3.61,5.45c-2.83,4.27-6.18,6.2-10.36,3.43-4-2.67-4-6.78-1.22-10.95l2.08-3.13-7.56-5,1.61-2.43Zm-13-1.07c-2.21,3.34-2.06,5.73.66,7.53s4.76.72,7-2.63l1.8-2.71-7.57-5Z"/><path class="cls-1" d="M171.22,165.43l9.08,9.9-2.14,2L169,167.34c-3.72-4.05-6.6-3.75-8.8-1.73s-2.83,4.94.89,9l9.13,10-2.05,1.89-9.08-9.89c-5-5.41-4.06-9.67-.62-12.82S166.26,160,171.22,165.43Z"/><path class="cls-1" d="M154.39,192.39l6.05-3.35,1.2,2.15L147,199.3l-1.19-2.15,6.05-3.35L142,175.94l2.55-1.41Z"/><path class="cls-1" d="M139.7,202.09l-12.63,3.78-.7-2.36,9.84-2.95-2.06-6.86-8.3,2.48-.7-2.36,8.3-2.48-2.38-8-10.18,3-.7-2.36,13-3.88Z"/><path class="cls-1" d="M110.82,195.52l-2.17,1.66-7.8-11.45,3.29-.23Zm7.44,11.92-7.15.5c-4.65.33-8.1-1.11-8.44-5.86-.32-4.56,2.87-7,7.52-7.31l4.24-.3-.67-9.65,2.9-.2Zm-7.49-10.35c-3.55.25-5.41,1.83-5.2,4.79s2.24,3.93,5.79,3.68l3.83-.27-.59-8.46Z"/><path class="cls-1" d="M86.65,194.86a2.07,2.07,0,1,1-1.56-2.56A2.09,2.09,0,0,1,86.65,194.86Z"/><path class="cls-1" d="M64.29,200.48l-5.86-2.9c-4.59-2.27-6.93-5.35-4.71-9.84,2.13-4.32,6.22-4.81,10.7-2.59l3.38,1.66,4-8.13L74.43,180Zm-.58-13c-3.59-1.78-5.94-1.32-7.39,1.6s-.11,4.82,3.49,6.6l2.92,1.44,4-8.14Z"/><path class="cls-1" d="M43.66,189l-5.54-4.54c-3.6-3-5.13-6.37-2.1-10.05s6.88-3.11,10.48-.16l3.28,2.7,6.14-7.47,2.25,1.84Zm1.66-12.66c-2.75-2.26-5.18-2.39-7.06-.09s-1.07,4.39,1.68,6.65l3,2.43,5.39-6.56Zm1.11-1.11-2.71-.28,2.2-13.68,2.55,2.09Z"/><path class="cls-1" d="M35.72,167.25c-5.89,4.36-11.86,3.77-15.28-.85s-2.23-10.51,3.64-14.86,12-3.87,15.41.75S41.6,162.89,35.72,167.25ZM25.87,154c-4.58,3.39-5.8,7.65-3.37,10.93s6.85,3.34,11.43,0,5.94-7.74,3.5-11S30.45,150.56,25.87,154Z"/><path class="cls-1" d="M21.74,146.94c-6.85,2.73-12.67.27-14.92-5.36A8.88,8.88,0,0,1,7,134.41l2.35.78a6.47,6.47,0,0,0-.18,5.37c1.71,4.28,6.09,5.72,11.39,3.61s7.68-6,5.87-10.52a6.14,6.14,0,0,0-2.77-3.33l-5.53,2.2,1.79,4.5-2.24.9-2.78-7,8.93-3.56A9.76,9.76,0,0,1,28.91,133C31.15,138.56,28.64,144.19,21.74,146.94Z"/><path class="cls-1" d="M2.4,125.75l-1-7.1C.76,114,2,110.5,6.67,109.83c4.52-.63,7.16,2.37,7.81,7l.59,4.21,9.58-1.35.4,2.89Zm9.8-8.19c-.49-3.52-2.19-5.26-5.13-4.85s-3.76,2.5-3.27,6l.54,3.8,8.4-1.18Zm1.57-.06-1.81-2,10.89-8.58.46,3.27Z"/><path class="cls-1" d="M.63,97.74.9,94.46l23.42-5.89-.24,3.08L11,94.6c-2.62.62-5.18,1.15-7.87,1.67v.14c2.59.92,5,1.85,7.5,2.87l12.42,5-.23,3Zm13.26,4.74L14.73,92l2.31.18-.84,10.5Z"/><path class="cls-1" d="M3.05,79.39,4.2,76.08l13-.12c1.66,0,3.35,0,5,0l0-.13c-1.32-1-2.69-2-4-3.06L8.16,64.69l1.16-3.31,21.6,7.52L30,71.45l-11.9-4.14c-1.88-.65-4.4-1.77-6.26-2.57l0,.13,4.33,3.43,9.76,8-.64,1.82-12.59.2H7.16l0,.13c2,.52,4.63,1.22,6.51,1.87l11.89,4.14-.86,2.49Z"/><path class="cls-1" d="M14.53,51.38l2-2.84,12.48,3.62c1.58.48,3.2,1,4.81,1.48l.08-.11c-1-1.38-2-2.71-2.93-4.08L23.66,38.77l2.06-2.84L44.25,49.36l-1.59,2.19-10.2-7.39c-1.62-1.17-3.71-3-5.26-4.27l-.08.11,3.15,4.53L37.33,55,36.2,56.53,24.07,53.09,18.78,51.5l-.08.11c1.73,1.07,4.08,2.5,5.7,3.67l10.2,7.39-1.55,2.14Z"/><path class="cls-1" d="M33.26,28.52,43.4,20.09,45,22l-7.91,6.56,4.59,5.52,6.66-5.54,1.58,1.9L43.23,36l5.31,6.4,8.18-6.79,1.57,1.9L47.88,46.12Z"/><path class="cls-1" d="M50.93,15.18l6.38-3.26C61.46,9.79,65.2,9.76,67.37,14c2.08,4.07.1,7.55-4.05,9.68l-3.78,1.93,4.4,8.61-2.59,1.33Zm11,6.58c3.17-1.62,4.25-3.79,2.9-6.43s-3.6-2.74-6.77-1.12L54.6,16l3.86,7.55Zm.57,1.47,1.34-2.38,11.67,7.48-2.94,1.5Z"/><path class="cls-1" d="M85,14.42a2.08,2.08,0,1,1,4.08-.76,2.08,2.08,0,1,1-4.08.76Z"/></svg>