<svg id="Layer_1" data-name="Layer 1" xmlns="http://www.w3.org/2000/svg" viewBox="0 0 208.8 208.8"><defs><style>.cls-1{fill:#fff;}</style></defs><title>textcircles</title><path class="cls-1" d="M207.2,87.78l.11,3L195,93.6l-7.28,1.6v.14c2.47.41,4.94.87,7.39,1.33l12.5,2.71.1,2.62-12.27,3.61-7.27,1.91v.14c2.48.35,4.95.66,7.38,1L208,110.61l.1,2.79-22.91-3.87-.13-3.48,13.55-3.94c1.76-.46,3.4-.88,5.14-1.29v-.13c-1.76-.29-3.43-.63-5.22-1l-13.79-2.87-.13-3.43Z"/><path class="cls-1" d="M196,117.91c7.05,1.83,10.33,6.83,8.89,12.36s-6.74,8.3-13.79,6.47-10.48-6.87-9.05-12.4S188.89,116.08,196,117.91Zm-4.14,15.94c5.48,1.42,9.54-.29,10.56-4.22s-1.69-7.4-7.17-8.82-9.71.23-10.73,4.17S186.32,132.42,191.81,133.85Z"/><path class="cls-1" d="M198.23,148.53l-1.78,3-12.68-2.42c-1.62-.32-3.27-.69-4.91-1l-.07.12c1.08,1.27,2.22,2.5,3.28,3.76l8.28,9.9-1.77,3L169,153.3l1.36-2.31,10.79,6.36c1.71,1,4,2.59,5.61,3.74l.07-.12-3.55-4.19-8-9.67,1-1.66,12.32,2.28,5.39,1.08.07-.12c-1.81-.9-4.28-2.09-6-3.1l-10.79-6.37,1.33-2.26Z"/><path class="cls-1" d="M181.81,172.91l-9.26,9.29-1.73-1.73,7.22-7.24-5-5-6.09,6.1-1.74-1.73,6.09-6.1-5.86-5.84-7.46,7.48-1.73-1.73,9.5-9.54Z"/><path class="cls-1" d="M165.42,188l-2.55,1.56-14.5-7.88-4.55-2.73-.12.07c1.32,1.88,2.85,4,4.1,6L154,195l-2.34,1.43-11.9-19.39,2.55-1.56,14.51,7.89,4.54,2.72.12-.07c-1.32-1.88-2.78-3.84-4-5.86L151.18,170l2.34-1.44Z"/><path class="cls-1" d="M135.14,202.83l-2.78.81-6.42-21.83,2.78-.82Z"/><path class="cls-1" d="M123.37,206l-3,.31L110.7,193l-2.94-4.43h-.14c.39,2.27.88,4.8,1.13,7.17L110,207.46l-2.73.29-2.4-22.63,3-.32,9.7,13.37,2.94,4.42.14,0c-.39-2.27-.87-4.66-1.12-7l-1.25-11.84,2.73-.29Z"/><path class="cls-1" d="M94.52,187.44,92.41,189a8.87,8.87,0,0,0-5.54-4.08c-2.92-.64-5,.44-5.43,2.6s1,3.35,2.86,4.72l2.89,2.1c1.88,1.33,4,3.43,3.26,6.7s-4.24,5.26-8.28,4.39a9.45,9.45,0,0,1-6-4.18l1.9-1.49A7.29,7.29,0,0,0,82.71,203c2.49.54,4.42-.36,4.85-2.35s-1.3-3.36-2.88-4.48l-2.87-2.06c-2.34-1.66-4-3.63-3.3-6.93.77-3.52,4.28-5.69,8.95-4.68A10.91,10.91,0,0,1,94.52,187.44Z"/><path class="cls-1" d="M64.79,196.83l6.28,2.81-1,2.24-15.21-6.81,1-2.24,6.29,2.82,8.29-18.53,2.64,1.18Z"/><path class="cls-1" d="M48.32,191l-10.58-7.77,1.46-2,8.23,6.05,4.22-5.75-6.95-5.1,1.45-2,7,5.1L58,172.9l-8.52-6.25,1.45-2,10.86,8Z"/><path class="cls-1" d="M30.69,176.94l-2.21-2.7,6.64-11.07c.86-1.41,1.77-2.83,2.65-4.26l-.09-.1c-1.57.57-3.12,1.22-4.67,1.78L20.88,165l-2.21-2.7,17.6-14.41L38,149.93l-9.7,7.93c-1.53,1.26-3.78,2.82-5.43,4l.08.11,5.16-1.89,11.82-4.14,1.22,1.48-6.38,10.79-2.87,4.68L32,173c1.46-1.39,3.44-3.29,5-4.55l9.69-7.93,1.66,2Z"/><path class="cls-1" d="M19.87,139.18a2.07,2.07,0,1,1-1.48-3.86,2.07,2.07,0,1,1,1.48,3.86Z"/><path class="cls-1" d="M2.75,125.37l-.24-3L14.66,119l7.21-1.93,0-.13c-2.47-.31-5-.65-7.44-1L1.81,113.8l-.21-2.62L13.68,107l7.18-2.24v-.13c-2.48-.24-5-.45-7.41-.69L.89,102.6.67,99.81l23.06,2.84.28,3.47-13.35,4.55c-1.74.53-3.36,1-5.07,1.51v.14c1.77.21,3.45.47,5.25.71l13.91,2.25L25,118.7Z"/><path class="cls-1" d="M12.64,94.76C5.51,93.25,2,88.41,3.2,82.82s6.36-8.59,13.47-7.08,10.78,6.38,9.6,12S19.76,96.27,12.64,94.76Zm3.41-16.1c-5.54-1.17-9.52.71-10.36,4.69s2,7.31,7.57,8.48,9.68-.67,10.52-4.64S21.6,79.84,16.05,78.66Z"/><path class="cls-1" d="M9,64.28l1.64-3.08L23.4,63.06c1.63.24,3.29.54,5,.79l.06-.12c-1.14-1.22-2.33-2.4-3.45-3.61L16.25,50.6l1.64-3.07L38,58.21l-1.27,2.38L25.65,54.7c-1.75-.93-4.06-2.41-5.76-3.48l-.07.12,3.73,4,8.38,9.31-.9,1.7L18.62,64.65l-5.43-.84-.06.12c1.84.82,4.36,1.9,6.11,2.83L30.3,72.65,29.07,75Z"/><path class="cls-1" d="M24.29,39.17l8.84-9.69,1.81,1.65-6.88,7.56,5.26,4.8,5.81-6.37,1.81,1.65-5.8,6.37,6.11,5.58,7.12-7.81,1.81,1.65-9.07,9.95Z"/><path class="cls-1" d="M40,23.37l2.47-1.67,14.85,7.22L62,31.44l.12-.08c-1.41-1.81-3-3.81-4.37-5.78l-6.61-9.75,2.28-1.55L66.18,33.12,63.7,34.8,48.85,27.57l-4.67-2.52-.12.08c1.42,1.83,3,3.71,4.3,5.68L55,40.67l-2.28,1.54Z"/><path class="cls-1" d="M69.58,7.2l2.74-.94,7.39,21.52L77,28.72Z"/><path class="cls-1" d="M81.19,3.47l3-.45L94.43,15.94l3.13,4.29.14,0c-.49-2.25-1.09-4.75-1.44-7.1L94.5,1.46l2.72-.41,3.4,22.5-3,.45L87.37,11.07,84.24,6.79l-.13,0c.49,2.26,1.07,4.62,1.42,7l1.78,11.78L84.59,26Z"/><path class="cls-1" d="M110.84,20.76l2-1.67a8.85,8.85,0,0,0,5.71,3.83c3,.51,4.94-.66,5.31-2.84s-1.11-3.3-3.06-4.59l-3-2c-1.93-1.25-4.12-3.25-3.55-6.55s4-5.44,8.07-4.75a9.39,9.39,0,0,1,6.13,3.91L126.68,7.7a7.3,7.3,0,0,0-4.73-3c-2.52-.43-4.4.56-4.75,2.57-.36,2.16,1.45,3.3,3.09,4.34l3,1.93c2.4,1.55,4.17,3.45,3.6,6.78-.61,3.55-4,5.88-8.74,5.08A10.92,10.92,0,0,1,110.84,20.76Z"/><path class="cls-1" d="M140.14,10l-6.4-2.53.9-2.28,15.5,6.12-.9,2.28-6.4-2.53L135.37,30l-2.69-1.06Z"/><path class="cls-1" d="M156.83,15.15l10.91,7.28-1.36,2-8.5-5.68-4,5.93,7.17,4.79-1.36,2-7.17-4.78L148,33.64l8.79,5.86-1.36,2L144.2,34.07Z"/><path class="cls-1" d="M175.06,28.37,177.39,31l-6.13,11.37c-.79,1.44-1.64,2.91-2.45,4.37l.09.1c1.54-.65,3.06-1.36,4.58-2l11.93-4.92,2.33,2.6-16.93,15.2-1.8-2,9.32-8.37c1.47-1.32,3.66-3,5.25-4.22l-.09-.1-5.07,2.12L166.8,49.79l-1.28-1.43,5.88-11.07,2.66-4.81-.1-.1c-1.39,1.45-3.28,3.44-4.76,4.77l-9.32,8.37-1.75-2Z"/><path class="cls-1" d="M187.57,65.58a2.07,2.07,0,1,1-1.15,2.76A2.09,2.09,0,0,1,187.57,65.58Z"/></svg>